<svg xmlns="http://www.w3.org/2000/svg" viewBox="0 0 100 100" width="200px" height="200px"><path fill="#565fa1" d="M68.5,35c0-1.184-0.592-2.227-1.492-2.86c0.309-0.472,0.492-1.034,0.492-1.64 c0-1.446-1.023-2.652-2.385-2.936C65.353,27.092,65.5,26.565,65.5,26c0-1.781-1.335-3.234-3.055-3.455 C62.473,22.366,62.5,22.187,62.5,22c0-1.933-1.567-3.5-3.5-3.5c-0.275,0-0.539,0.039-0.796,0.099C57.663,17.365,56.434,16.5,55,16.5 c-0.392,0-0.763,0.079-1.115,0.198C53.337,15.975,52.477,15.5,51.5,15.5c-0.772,0-1.468,0.3-2,0.779 c-0.532-0.479-1.228-0.779-2-0.779c-0.977,0-1.837,0.475-2.385,1.198C44.763,16.579,44.392,16.5,44,16.5 c-1.434,0-2.663,0.865-3.204,2.099C40.539,18.539,40.275,18.5,40,18.5c-1.933,0-3.5,1.567-3.5,3.5c0,0.187,0.027,0.366,0.055,0.545 C34.835,22.766,33.5,24.219,33.5,26c0,0.565,0.147,1.092,0.385,1.564c-1.362,0.284-2.385,1.49-2.385,2.936 c0,0.606,0.183,1.168,0.492,1.64c-0.9,0.633-1.492,1.676-1.492,2.86c0,1.118,0.534,2.102,1.35,2.743 C31.633,38.114,31.5,38.54,31.5,39c0,1.381,1.119,2.5,2.5,2.5c0.815,0,30.185,0,31,0c1.381,0,2.5-1.119,2.5-2.5 c0-0.46-0.133-0.886-0.35-1.257C67.966,37.102,68.5,36.118,68.5,35z"/><path fill="#ead6c7" d="M68,73c-4.325-1.622-7.188-2.659-8.907-3.27c-0.286-0.102-0.54-0.191-0.764-0.27 C57.528,69.178,57,68.425,57,67.576v-3.034c4.442-2.889,8-7.543,8-9.542c0-1,0-4,0-4c2,0,2.381-1.898,3-4c0.57-1.935,1-4,1-5 c0-1.875-5.5-2.5-5.5-2.5h-0.004c-0.031-1.75-0.325-7.907-2.871-13c0,0-4.125-2-10.625-2s-10.625,2-10.625,2 c-2.553,5.107-2.932,11.284-2.989,13.014C35.633,39.611,31,40.277,31,42c0,1,0.43,3.065,1,5c0.619,2.102,1,4,3,4c0,0,0,3,0,4 c0,1.999,3.558,6.653,8,9.542v3.034c0,0.849-0.528,1.602-1.329,1.884c-0.224,0.079-0.478,0.169-0.764,0.27 C39.188,70.341,36.325,71.378,32,73c-8,3-8,11-8,11h52C76,84,76,76,68,73z"/><path fill="#a3a3cd" d="M68,73c-4.325-1.622-7.188-2.659-8.907-3.27c-0.249-0.089-0.464-0.164-0.666-0.236 C57.178,70.057,54.429,71,50,71c-4.406,0-7.166-0.944-8.423-1.507c-0.203,0.072-0.419,0.148-0.67,0.237 C39.188,70.341,36.325,71.378,32,73c-8,3-8,11-8,11h52C76,84,76,76,68,73z"/><path fill="none" stroke="#1f212b" stroke-linecap="round" stroke-linejoin="round" stroke-miterlimit="10" d="M63.5 40c0 0 .125-7.5-2.875-13.5 0 0-4.125-2-10.625-2s-10.625 2-10.625 2c-3 6-3 13.5-3 13.5M47.5 53.5c0 0 .75 1 2.5 1s2.5-1 2.5-1M43.272 64.123C45.664 65.678 47.99 66.5 50 66.5s4.336-.822 6.728-2.377"/><path fill="none" stroke="#1f212b" stroke-linecap="round" stroke-linejoin="round" stroke-miterlimit="10" stroke-width="2" d="M63.5,39.5c0,0,5.5,0.625,5.5,2.5c0,1-0.43,3.065-1,5c-0.619,2.102-1,4-3,4c0,0,0,3,0,4c0,1.999-3.558,6.653-8,9.542v3.034 c0,0.849,0.528,1.602,1.329,1.884c0.224,0.079,0.478,0.169,0.764,0.27C60.812,70.341,63.675,71.378,68,73c8,3,8,11,8,11H24 c0,0,0-8,8-11c4.325-1.622,7.188-2.659,8.907-3.27c0.286-0.102,0.54-0.191,0.764-0.27C42.472,69.178,43,68.425,43,67.576v-3.034 c-4.442-2.889-8-7.543-8-9.542c0-1,0-4,0-4c-2,0-2.381-1.898-3-4c-0.57-1.935-1-4-1-5c0-1.875,5.5-2.5,5.5-2.5"/><path fill="none" stroke="#1f212b" stroke-linecap="round" stroke-linejoin="round" stroke-miterlimit="10" d="M67.11 40.33c.244-.386.39-.84.39-1.33 0-.46-.133-.886-.35-1.257.816-.641 1.35-1.625 1.35-2.743 0-1.184-.592-2.227-1.492-2.86.309-.472.492-1.034.492-1.64 0-1.446-1.023-2.652-2.385-2.936C65.353 27.092 65.5 26.565 65.5 26c0-1.781-1.335-3.234-3.055-3.455C62.473 22.366 62.5 22.187 62.5 22c0-1.933-1.567-3.5-3.5-3.5-.275 0-.539.039-.796.099C57.663 17.365 56.434 16.5 55 16.5c-.392 0-.763.079-1.115.198C53.337 15.975 52.477 15.5 51.5 15.5c-.772 0-1.468.3-2 .779-.532-.479-1.228-.779-2-.779-.977 0-1.837.475-2.385 1.198C44.763 16.579 44.392 16.5 44 16.5c-1.434 0-2.663.865-3.204 2.099C40.539 18.539 40.275 18.5 40 18.5c-1.933 0-3.5 1.567-3.5 3.5 0 .187.027.366.055.545C34.835 22.766 33.5 24.219 33.5 26c0 .565.147 1.092.385 1.564-1.362.284-2.385 1.49-2.385 2.936 0 .606.183 1.168.492 1.64-.9.633-1.492 1.676-1.492 2.86 0 1.118.534 2.102 1.35 2.743C31.633 38.114 31.5 38.54 31.5 39c0 .641.248 1.219.645 1.661M40.5 69.5c0 0 3 2 9.5 2 .525 0 1.02-.017 1.5-.041M53.5 71.287c.739-.093 1.4-.212 2-.342"/><path fill="#1f212b" d="M47.968,43.935c-0.186,2.191-1.176,4.845-4.832,5.061C37.979,48.988,37,46.882,37,43v-1.82 c0-1.023,0.769-1.878,1.786-1.991C39.801,39.078,40.899,39,42,39c2.07,0,4.65,0.465,5.569,1.483 C47.727,40.921,48.113,42.206,47.968,43.935z M48.445,39.973C47.259,38.432,44,38,42,38c-3.996,0-7.985,0.993-8,0.993c0,0,0,0,0,0 l0.325,1.929C35.741,40.573,36,42,36,43c0,4,1,6.996,7.163,6.996c4.549-0.252,5.613-3.765,5.801-5.977 C49.167,41.608,48.444,39.981,48.445,39.973z"/><path fill="#1f212b" d="M52 43.125c0 0-.5-1.125-2-1.125s-2 1-2 1v-2h4V43.125zM50 60c-4.696 0-7.724-2.23-7.85-2.325-.166-.124-.199-.358-.075-.524.124-.165.358-.2.525-.076C42.629 57.097 45.565 59 50 59s7.371-1.903 7.4-1.925c.167-.124.401-.089.525.076.124.166.09.4-.075.524C57.724 57.77 54.696 60 50 60zM43 40c-.799 0-1.482.589-1.803 1.435C41.378 41.178 41.662 41 42 41c.552 0 1 .448 1 1 0 .552-.448 1-1 1-.502 0-.899-.376-.971-.857C41.015 42.26 41 42.378 41 42.5c0 1.381.895 2.5 2 2.5s2-1.119 2-2.5C45 41.119 44.105 40 43 40zM57 40c-.799 0-1.482.589-1.803 1.435C55.378 41.178 55.662 41 56 41c.552 0 1 .448 1 1 0 .552-.448 1-1 1-.502 0-.899-.376-.971-.857C55.015 42.26 55 42.378 55 42.5c0 1.381.895 2.5 2 2.5s2-1.119 2-2.5C59 41.119 58.105 40 57 40z"/><path fill="#1f212b" d="M52.431,40.483C53.35,39.465,55.93,39,58,39c1.101,0,2.199,0.078,3.214,0.19 C62.231,39.302,63,40.157,63,41.18V43c0,3.882-0.979,5.988-6.135,5.996c-3.656-0.216-4.646-2.87-4.832-5.061 C51.887,42.206,52.273,40.921,52.431,40.483z M51.036,44.019c0.188,2.212,1.251,5.724,5.801,5.977C63,49.996,64,47,64,43 c0-1,0.259-2.427,1.675-2.078L66,38.993c0,0,0,0,0,0c-0.015,0-4.004-0.993-8-0.993c-2,0-5.259,0.432-6.445,1.973 C51.556,39.981,50.833,41.608,51.036,44.019z"/><path fill="#1f212b" d="M48 41h4v2c0 0-.5-1-2-1s-2 1.125-2 1.125V41zM60.314 35.751L61 34.441c-1.277-.298-2.64-.443-4-.441-1.73.003-3.456.247-5 .723L52.865 36c1.268-.417 2.7-.622 4.135-.625C58.128 35.372 59.259 35.491 60.314 35.751zM43 35.375c1.435.003 2.867.208 4.135.625L48 34.723c-1.544-.476-3.27-.719-5-.723-1.36-.003-2.723.143-4 .441l.686 1.31C40.741 35.491 41.872 35.372 43 35.375z"/></svg>