<?xml version="1.0" encoding="iso-8859-1"?>
<!-- Generator: Adobe Illustrator 19.0.0, SVG Export Plug-In . SVG Version: 6.00 Build 0)  -->
<svg version="1.1" id="Layer_1" xmlns="http://www.w3.org/2000/svg" xmlns:xlink="http://www.w3.org/1999/xlink" x="0px" y="0px"
	 viewBox="0 0 512.002 512.002" style="enable-background:new 0 0 512.002 512.002;" xml:space="preserve">
<path style="fill:#42210B;" d="M309.051,303.417c10.958,0,19.841,8.883,19.841,19.841s-8.883,19.841-19.841,19.841
	s-19.841-8.883-19.841-19.841S298.092,303.417,309.051,303.417z"/>
<path style="fill:#FF7D00;" d="M176.132,171.928c0-41.788,33.876-75.665,75.665-75.665s75.665,33.876,75.665,75.665l0,0
	c-3.783-28.249-36.151-50.443-75.665-50.443s-71.462,22.195-75.244,50.443H176.132z"/>
<path style="fill:#FF5400;" d="M319.96,426.798c18.638,0,34.513-18.379,35.549-41.761l6.471-117.432
	c0.806-12.334-2.769-24.558-10.095-34.513c-6.02-8.31-15.625-13.273-25.885-13.374h10.181c11.576,0.005,22.621,4.856,30.459,13.374
	c8.601,9.359,12.998,21.829,12.166,34.513l-7.334,117.432c-1.077,22.936-19.671,41.154-42.624,41.761H319.96z"/>
<g>
	<ellipse style="fill:#42210B;" cx="333.268" cy="255.998" rx="21.619" ry="22.061"/>
	<ellipse style="fill:#42210B;" cx="333.268" cy="390.515" rx="20.117" ry="20.528"/>
</g>
<path style="fill:#FF9900;" d="M330.657,172.534h-52.579c-2.329-0.013-4.568,0.901-6.221,2.541l-20.067,20.155l-20.067-20.155
	c-1.653-1.64-3.892-2.555-6.221-2.541h-52.141c3.943-29.445,37.682-52.579,78.869-52.579S326.276,143.091,330.657,172.534z"/>
<g>
	<path style="fill:#FF6600;" d="M308.571,306c-9.53,0-17.256,7.726-17.256,17.256s7.726,17.256,17.256,17.256
		s17.256-7.726,17.256-17.256S318.102,306,308.571,306z M326.345,219.717c10.261,0.101,19.866,5.064,25.885,13.374
		c7.326,9.956,10.901,22.179,10.095,34.513l-6.385,117.432c-1.294,23.383-17.256,41.761-35.549,41.761h-28.129
		c-8.513-0.279-15.549-6.729-16.566-15.186c-0.034-0.69-0.034-1.381,0-2.07V236.975c-0.046-0.805-0.046-1.611,0-2.416
		c1.172-8.321,8.168-14.587,16.566-14.841H326.345z M333.42,271.488c9.53,0,17.256-7.726,17.256-17.256s-7.726-17.256-17.256-17.256
		s-17.256,7.726-17.256,17.256C316.164,263.761,323.89,271.487,333.42,271.488z M350.677,392.285c0-9.53-7.726-17.256-17.256-17.256
		c-9.53,0-17.256,7.726-17.256,17.256s7.726,17.256,17.256,17.256c9.396-0.188,16.914-7.859,16.912-17.256H350.677z"/>
	<path style="fill:#FF6600;" d="M277.019,237.168c0.047-7.644,5.847-14.024,13.452-14.797h2.69
		C284.866,222.643,278.011,228.928,277.019,237.168z"/>
	<path style="fill:#FF6600;" d="M290.47,424.144c-7.605-0.773-13.405-7.153-13.452-14.797c0.991,8.24,7.847,14.525,16.142,14.797
		H290.47z"/>
</g>
<path style="fill:#FF5400;" d="M277.019,237.168c-0.033,0.673-0.033,1.345,0,2.018C276.986,238.513,276.986,237.839,277.019,237.168
	z"/>
<path style="fill:#FF6600;" d="M251.797,54.227c13.93,0,25.222,11.292,25.222,25.222v3.615c-16.469-4.821-33.974-4.821-50.443,0
	v-3.615C226.576,65.518,237.867,54.227,251.797,54.227z"/>
<path style="fill:#FF5400;" d="M226.576,237.336c0.032,0.616,0.032,1.233,0,1.85C226.637,238.57,226.637,237.951,226.576,237.336z"
	/>
<g>
	<path style="fill:#FF6600;" d="M226.576,409.347c-0.047,7.644-5.847,14.024-13.452,14.797h-2.69
		C218.729,423.872,225.584,417.587,226.576,409.347z"/>
	<path style="fill:#FF6600;" d="M213.124,222.371c7.605,0.773,13.405,7.153,13.452,14.797c-0.991-8.24-7.847-14.524-16.142-14.797
		H213.124z"/>
</g>
<path style="fill:#FF9900;" d="M293.161,205.557c-18.31,0.366-32.96,15.315-32.956,33.629V407.33
	c0.018,5.093,1.166,10.118,3.363,14.713c-7.539,3.111-16.002,3.111-23.54,0c2.197-4.595,3.345-9.62,3.363-14.713V239.186
	c0.004-18.314-14.647-33.263-32.956-33.629h-17.487v-16.814h30.182l22.7,22.783c3.27,3.296,8.593,3.318,11.889,0.049
	c0.017-0.017,0.032-0.032,0.049-0.049l22.7-22.783h30.182v16.814H293.161z"/>
<g>
	<circle style="fill:#42210B;" cx="192.946" cy="323.262" r="21.355"/>
	<circle style="fill:#42210B;" cx="167.721" cy="255.998" r="21.158"/>
	<circle style="fill:#42210B;" cx="167.721" cy="390.515" r="20.244"/>
</g>
<path style="fill:#FF6600;" d="M210.646,323.258c0-9.53-7.726-17.256-17.256-17.256s-17.256,7.726-17.256,17.256
	s7.726,17.256,17.256,17.256C202.92,340.514,210.646,332.788,210.646,323.258z M150.247,392.285c0,9.53,7.726,17.256,17.256,17.256
	c9.53,0,17.256-7.726,17.256-17.256s-7.726-17.256-17.256-17.256C157.974,375.027,150.247,382.754,150.247,392.285z
	 M184.761,254.231c0-9.53-7.726-17.256-17.256-17.256c-9.53,0-17.256,7.726-17.256,17.256c0,9.53,7.726,17.256,17.256,17.256
	C177.035,271.488,184.761,263.761,184.761,254.231z M141.619,267.605c-0.806-12.334,2.769-24.558,10.095-34.513
	c5.947-8.214,15.401-13.164,25.54-13.374h34.082c8.513,0.279,15.549,6.729,16.566,15.186l0,0c0.076,0.688,0.076,1.382,0,2.07
	v172.567c0.046,0.805,0.046,1.611,0,2.416c-1.172,8.321-8.168,14.587-16.566,14.841h-27.697c-18.638,0-34.513-18.379-35.549-41.761
	L141.619,267.605z"/>
<path style="fill:#FF5400;" d="M124.363,267.605c-0.832-12.684,3.564-25.155,12.166-34.513c7.959-8.652,19.22-13.515,30.976-13.374
	h10.181c-10.108,0.236-19.524,5.184-25.454,13.374c-7.326,9.956-10.901,22.179-10.095,34.513l6.385,117.432
	c1.294,23.383,17.256,41.761,35.549,41.761h-8.628c-22.953-0.607-41.547-18.826-42.624-41.761L124.363,267.605z"/>
<path style="fill:#42210B;" d="M260.205,239.186c-0.004-18.314,14.647-33.263,32.956-33.629h17.487v-16.814h-30.182l-22.7,22.783
	c-3.27,3.296-8.593,3.318-11.889,0.049c-0.017-0.017-0.032-0.032-0.049-0.049l-22.7-22.783h-30.182v16.814h17.487
	c18.31,0.366,32.96,15.315,32.956,33.629V407.33c-0.018,5.093-1.166,10.118-3.363,14.713c7.539,3.111,16.002,3.111,23.54,0
	c-2.197-4.595-3.345-9.62-3.363-14.713V239.186H260.205z M277.019,79.448c0-13.93-11.292-25.222-25.222-25.222
	s-25.222,11.292-25.222,25.222v3.615c16.469-4.821,33.974-4.821,50.443,0v-3.615H277.019z M365.968,235.402
	c-7.637-8.3-18.398-13.025-29.677-13.032h-45.819c-7.605,0.773-13.405,7.153-13.452,14.797c-0.033,0.673-0.033,1.345,0,2.018
	v168.144c-0.044,0.784-0.044,1.57,0,2.354c0.215,7.515,5.972,13.703,13.452,14.461h38.337c22.364-0.592,40.482-18.343,41.532-40.69
	l7.567-114.422C378.693,256.66,374.379,244.507,365.968,235.402z M251.797,96.263c-41.788,0-75.665,33.876-75.665,75.665h50.443
	c2.235-0.012,4.383,0.864,5.969,2.438l19.252,19.337l19.252-19.337c1.586-1.574,3.734-2.451,5.969-2.438h50.443
	C327.463,130.139,293.585,96.263,251.797,96.263z M137.628,235.402c-8.381,9.119-12.664,21.271-11.854,33.629l7.483,114.422
	c1.049,22.348,19.167,40.099,41.532,40.69h38.337c7.605-0.773,13.405-7.153,13.452-14.797c0.033-0.673,0.033-1.345,0-2.018V239.185
	c0.044-0.728,0.044-1.458,0-2.186l0,0c-0.131-7.579-5.91-13.864-13.452-14.628h-45.399
	C156.3,222.258,145.363,226.993,137.628,235.402z M149.313,434.821c-19.089-9.839-31.58-29.007-32.872-50.443l-6.138-94.497
	L90.63,319.305c-1.508,2.413-4.134,3.9-6.978,3.951H37.75l-14.377,21.438l-13.956-9.248l16.814-25.222
	c1.547-2.349,4.166-3.768,6.978-3.783h45.903l29.761-44.978c1.109-14.064,7.05-27.313,16.814-37.496
	c10.813-11.756,26.063-18.436,42.037-18.412h8.408v-16.814h-8.408c-4.644,0-8.408-3.764-8.408-8.408v-8.408h-50.443
	c-4.111,0.067-7.668-2.849-8.408-6.894L85.082,79.448H50.024c-3.166-0.009-6.058-1.797-7.483-4.624L25.727,41.195l14.964-7.567
	l14.544,29.005H92.06c4.111-0.067,7.668,2.849,8.408,6.894l15.386,85.586h45.063c5.233-28.229,23.281-52.427,48.846-65.493V79.448
	c-0.05-9.103,2.905-17.969,8.408-25.222l0,0V29.005h-25.222c-3.166-0.009-6.058-1.797-7.483-4.624l-8.408-16.814L192.022,0
	l6.138,12.19h28.416c4.644,0,8.408,3.764,8.408,8.408v20.346c10.721-4.679,22.908-4.679,33.629,0V20.598
	c0-4.644,3.764-8.408,8.408-8.408h28.415L311.573,0l14.964,7.567l-8.408,16.814c-1.425,2.827-4.317,4.615-7.483,4.624h-25.222
	v25.222l0,0c5.501,7.253,8.456,16.118,8.408,25.222v10.173c25.566,13.065,43.612,37.263,48.846,65.493h45.063l15.386-85.586
	c0.74-4.045,4.296-6.961,8.408-6.894h36.824l14.544-29.005l14.964,7.567l-16.814,33.629c-1.425,2.827-4.317,4.615-7.483,4.624
	h-35.058l-15.386,85.586c-0.74,4.045-4.296,6.961-8.408,6.894h-50.442v8.408c0,4.644-3.764,8.408-8.408,8.408h-8.408v16.814h8.408
	c15.973-0.024,31.222,6.656,42.037,18.412c9.695,10.197,15.627,23.393,16.814,37.413l37.916,53.47h46.156
	c2.812,0.014,5.431,1.434,6.978,3.783l16.814,25.222l-13.956,9.248l-14.377-21.438h-45.903c-2.706-0.012-5.241-1.326-6.81-3.531
	l-28.164-39.345l-6.221,95.759c-1.131,18.596-10.739,35.643-26.062,46.239l14.124,35.394h53.133
	c3.166,0.009,6.058,1.797,7.483,4.624l16.814,33.629l-14.964,7.567l-14.544-29.005h-53.638c-3.445,0.003-6.544-2.096-7.819-5.296
	l-15.806-39.43c-5.43,1.771-11.103,2.679-16.814,2.69h-35.899c-6.589,0.011-13.019-2.016-18.412-5.801
	c-14.325,7.728-31.578,7.728-45.903,0c-5.393,3.786-11.823,5.812-18.412,5.801h-35.646c-3.156-0.027-6.305-0.308-9.417-0.841
	l-15.049,37.58c-1.275,3.201-4.374,5.3-7.819,5.296H88.866L74.321,512l-14.964-7.567l16.814-33.629
	c1.425-2.827,4.317-4.615,7.483-4.624h53.133L149.313,434.821z"/>
<g>
</g>
<g>
</g>
<g>
</g>
<g>
</g>
<g>
</g>
<g>
</g>
<g>
</g>
<g>
</g>
<g>
</g>
<g>
</g>
<g>
</g>
<g>
</g>
<g>
</g>
<g>
</g>
<g>
</g>
</svg>
