<?xml version="1.0" encoding="iso-8859-1"?>
<!-- Generator: Adobe Illustrator 19.0.0, SVG Export Plug-In . SVG Version: 6.00 Build 0)  -->
<svg version="1.1" id="Layer_1" xmlns="http://www.w3.org/2000/svg" xmlns:xlink="http://www.w3.org/1999/xlink" x="0px" y="0px"
	 viewBox="0 0 503.467 503.467" style="enable-background:new 0 0 503.467 503.467;" xml:space="preserve">
<g transform="translate(15 1)">
	<path style="fill:#FFE079;" d="M364.733,37.4v34.133h-256V37.4c0-17.067,17.067-34.133,34.133-34.133H330.6
		C347.667,3.267,364.733,20.333,364.733,37.4z M364.733,412.867v51.2c0,17.067-17.067,34.133-34.133,34.133H142.867
		c-17.067,0-34.133-17.067-34.133-34.133v-51.2H364.733z"/>
	<g>
		<path style="fill:#AAB1BA;" d="M236.733,447c4.267,0,8.533,4.267,8.533,8.533s-4.267,8.533-8.533,8.533
			c-4.267,0-8.533-4.267-8.533-8.533S232.467,447,236.733,447L236.733,447z"/>
		<polygon style="fill:#AAB1BA;" points="108.733,412.867 364.733,412.867 364.733,71.533 108.733,71.533 		"/>
	</g>
</g>
<path style="fill:#51565F;" d="M345.6,503.467H157.867c-19.627,0-38.4-18.773-38.4-38.4v-51.2c0-2.56,1.707-4.267,4.267-4.267H345.6
	c2.56,0,4.267,1.707,4.267,4.267c0,2.56-1.707,4.267-4.267,4.267H128v46.933c0,14.507,15.36,29.867,29.867,29.867H345.6
	c14.507,0,29.867-15.36,29.867-29.867V76.8h-217.6c-2.56,0-4.267-1.707-4.267-4.267c0-2.56,1.707-4.267,4.267-4.267h221.867
	c2.56,0,4.267,1.707,4.267,4.267v392.533C384,484.693,365.227,503.467,345.6,503.467z M251.733,469.333
	c-6.827,0-12.8-5.973-12.8-12.8s5.973-12.8,12.8-12.8c6.827,0,12.8,5.973,12.8,12.8S258.56,469.333,251.733,469.333z
	 M251.733,452.267c-2.56,0-4.267,1.707-4.267,4.267s1.707,4.267,4.267,4.267c2.56,0,4.267-1.707,4.267-4.267
	S254.293,452.267,251.733,452.267z M123.733,384c-2.56,0-4.267-1.707-4.267-4.267V38.4c0-19.627,18.773-38.4,38.4-38.4H345.6
	C365.227,0,384,18.773,384,38.4c0,2.56-1.707,4.267-4.267,4.267c-2.56,0-4.267-1.707-4.267-4.267
	c0-14.507-15.36-29.867-29.867-29.867H157.867C143.36,8.533,128,23.893,128,38.4v341.333C128,382.293,126.293,384,123.733,384z
	 M328.533,196.267c-0.853,0-2.56,0-3.413-0.853l-68.267-68.267C256,126.293,256,125.44,256,123.733c0-1.707,0-2.56,0.853-3.413
	c1.707-1.707,4.267-1.707,5.973,0l68.267,68.267c0.853,0.853,0.853,1.707,0.853,3.413s0,2.56-0.853,3.413
	C330.24,196.267,329.387,196.267,328.533,196.267z M328.533,145.067c-0.853,0-2.56,0-3.413-0.853l-17.067-17.067
	c-0.853-0.853-0.853-1.707-0.853-3.413c0-1.707,0-2.56,0.853-3.413c1.707-1.707,4.267-1.707,5.973,0l17.067,17.067
	c0.853,0.853,0.853,1.707,0.853,3.413s0,2.56-0.853,3.413C330.24,145.067,329.387,145.067,328.533,145.067z M294.4,42.667h-34.133
	c-2.56,0-4.267-1.707-4.267-4.267s1.707-4.267,4.267-4.267H294.4c2.56,0,4.267,1.707,4.267,4.267S296.96,42.667,294.4,42.667z"/>
<g>
</g>
<g>
</g>
<g>
</g>
<g>
</g>
<g>
</g>
<g>
</g>
<g>
</g>
<g>
</g>
<g>
</g>
<g>
</g>
<g>
</g>
<g>
</g>
<g>
</g>
<g>
</g>
<g>
</g>
</svg>
