<?xml version="1.0" encoding="UTF-8"?>
<svg xmlns="http://www.w3.org/2000/svg" xmlns:xlink="http://www.w3.org/1999/xlink" width="96pt" height="96pt" viewBox="0 0 96 96" version="1.1">
<g id="surface2103263">
<path style=" stroke:none;fill-rule:nonzero;fill:rgb(21.568627%,27.843137%,30.980392%);fill-opacity:1;" d="M 12 12 L 84 12 L 84 84 L 12 84 Z M 12 12 "/>
<path style=" stroke:none;fill-rule:nonzero;fill:rgb(100%,100%,100%);fill-opacity:1;" d="M 68.292969 32.457031 L 72 28.75 L 72 28 L 58.726562 28 L 48.886719 51.582031 L 38.519531 28 L 24 28 L 24 28.75 L 27.769531 33.273438 C 27.917969 33.453125 28 33.679688 28 33.910156 L 28 58.484375 C 28 58.851562 27.875 59.203125 27.644531 59.488281 L 23 65.246094 L 23 66 L 37 66 L 37 65.25 L 32.351562 59.4375 C 32.125 59.152344 32 58.800781 32 58.4375 L 32 37.449219 L 44.730469 66 L 47.25 66 L 58 40.164062 L 58 60.335938 C 58 60.601562 57.894531 60.855469 57.707031 61.042969 L 53.5 65.25 L 53.5 66 L 72 66 L 72 65.25 L 68.292969 61.542969 C 68.105469 61.355469 68 61.101562 68 60.835938 L 68 33.164062 C 68 32.898438 68.105469 32.644531 68.292969 32.457031 Z M 68.292969 32.457031 "/>
</g>
</svg>
