<svg xmlns="http://www.w3.org/2000/svg" viewBox="0 0 100 100" width="200px" height="200px"><path fill="#f37e98" d="M28.307 77.614L28.307 34.614 71.307 34.614 71.307 77.614"/><path fill="#1f212b" d="M71.307,78.614c-0.552,0-1-0.448-1-1v-42h-41v42c0,0.552-0.448,1-1,1s-1-0.448-1-1v-43c0-0.552,0.448-1,1-1h43c0.552,0,1,0.448,1,1v43C72.307,78.166,71.859,78.614,71.307,78.614z"/><path fill="#ef657d" d="M49.924,9.977c-13.998,0-25.785,6.341-29.375,14.982l2.698,9.655h53.354l2.698-9.655C75.709,16.318,63.922,9.977,49.924,9.977z"/><path fill="#1f212b" d="M76.602,35.614H23.247c-0.449,0-0.842-0.299-0.963-0.731l-2.698-9.655c-0.061-0.216-0.046-0.446,0.04-0.653c3.816-9.184,16.275-15.599,30.298-15.599c14.024,0,26.483,6.415,30.298,15.599c0.086,0.207,0.1,0.437,0.04,0.653l-2.698,9.655C77.444,35.315,77.05,35.614,76.602,35.614z M24.006,33.614h51.837l2.398-8.585c-3.669-8.291-15.243-14.053-28.317-14.053c-13.073,0-24.647,5.762-28.317,14.053L24.006,33.614z"/><path fill="#ef466a" d="M21.805 24.614L21.604 24.632 24.026 33.614 75.854 33.614 78.198 24.614z"/><path fill="#1f212b" d="M68.807 25.614h-48c-.276 0-.5-.224-.5-.5s.224-.5.5-.5h48c.276 0 .5.224.5.5S69.083 25.614 68.807 25.614zM73.807 25.614h-2c-.276 0-.5-.224-.5-.5s.224-.5.5-.5h2c.276 0 .5.224.5.5S74.083 25.614 73.807 25.614z"/><path fill="#ef657d" d="M75.307,88.614h-51v-7c0-2.209,1.791-4,4-4h43c2.209,0,4,1.791,4,4V88.614z"/><path fill="#1f212b" d="M75.307,89.614h-51c-0.552,0-1-0.448-1-1v-7c0-2.757,2.243-5,5-5h43c2.757,0,5,2.243,5,5v7C76.307,89.166,75.859,89.614,75.307,89.614z M25.307,87.614h49v-6c0-1.654-1.346-3-3-3h-43c-1.654,0-3,1.346-3,3V87.614z"/><path fill="#1f212b" d="M61.807 81.614h-37c-.276 0-.5-.224-.5-.5s.224-.5.5-.5h37c.276 0 .5.224.5.5S62.083 81.614 61.807 81.614zM70.807 81.614h-4c-.276 0-.5-.224-.5-.5s.224-.5.5-.5h4c.276 0 .5.224.5.5S71.083 81.614 70.807 81.614z"/><path fill="#fefdef" d="M65.026,47.114H34.588c-0.431,0-0.781-0.349-0.781-0.781v-2.439c0-0.431,0.349-0.781,0.781-0.781h30.439c0.431,0,0.781,0.349,0.781,0.781v2.439C65.807,46.765,65.458,47.114,65.026,47.114z"/><path fill="#1f212b" d="M65.026,47.614H34.588c-0.706,0-1.281-0.575-1.281-1.281v-2.438c0-0.706,0.575-1.281,1.281-1.281h30.438c0.706,0,1.281,0.575,1.281,1.281v2.438C66.307,47.039,65.732,47.614,65.026,47.614z M34.588,43.614c-0.155,0-0.281,0.126-0.281,0.281v2.438c0,0.155,0.126,0.281,0.281,0.281h30.438c0.155,0,0.281-0.126,0.281-0.281v-2.438c0-0.155-0.126-0.281-0.281-0.281H34.588z"/><path fill="#a7dde3" d="M37.807 55.114H61.807V67.114H37.807z"/><path fill="#1f212b" d="M61.807,67.614h-24c-0.276,0-0.5-0.224-0.5-0.5v-12c0-0.276,0.224-0.5,0.5-0.5h24c0.276,0,0.5,0.224,0.5,0.5v12C62.307,67.391,62.083,67.614,61.807,67.614z M38.307,66.614h23v-11h-23V66.614z"/><path fill="#a7dde3" d="M61.279 55.239L49.784 61.177 38.289 55.239"/><path fill="#1f212b" d="M49.784,61.677c-0.079,0-0.158-0.019-0.229-0.056l-11.495-5.938c-0.245-0.127-0.341-0.428-0.215-0.674c0.126-0.245,0.429-0.34,0.674-0.215l11.266,5.819l11.266-5.819c0.245-0.126,0.547-0.031,0.674,0.215s0.03,0.547-0.215,0.674l-11.495,5.938C49.941,61.658,49.862,61.677,49.784,61.677z"/><path fill="#a7dde3" d="M38.289 67.114L46.56 59.958"/><path fill="#1f212b" d="M38.289,67.614c-0.14,0-0.279-0.059-0.378-0.173c-0.181-0.209-0.158-0.524,0.051-0.705l8.271-7.156c0.209-0.181,0.525-0.158,0.705,0.051c0.181,0.209,0.158,0.524-0.051,0.705l-8.271,7.156C38.521,67.574,38.405,67.614,38.289,67.614z"/><path fill="#a7dde3" d="M61.56 67.115L53.289 59.958"/><path fill="#1f212b" d="M61.561,67.615c-0.116,0-0.232-0.04-0.327-0.122l-8.272-7.156c-0.209-0.181-0.231-0.496-0.051-0.705c0.18-0.209,0.496-0.231,0.705-0.051l8.272,7.156c0.209,0.181,0.231,0.496,0.051,0.705C61.84,67.556,61.701,67.615,61.561,67.615z"/></svg>